# xmcd
#
# Track frame offsets: 
#        150
#        14393
#        24803
#        34275
#        49739
#        62229
#        74910
#        87854
#        98498
#        114960
#        129240
#        143278
#
# Disc length: 2153 seconds
#
# Revision: 2
# Processed by: cddbd v1.5.2PL0 Copyright (c) Steve Scherf et al.
# Submitted via: ExactAudioCopyFreeDBPlugin 1.0
#
DISCID=9408670c
DTITLE=Nina Simone - 1967 - High Priestess Of Soul
DYEAR=1967
DGENRE=Jazz
TTITLE0=Don't You Pay Them No Mind
TTITLE1=I'm Gonna Leave You
TTITLE2=Brown Eyed Handsome Man
TTITLE3=Keeper Of The Flame
TTITLE4=The Gal From Joe's
TTITLE5=Take Me To The Water
TTITLE6=I'm Going Back Home
TTITLE7=I Hold No Grudge
TTITLE8=Come Ye
TTITLE9=He Ain't Comin' Home No Home
TTITLE10=Work Song
TTITLE11=I Love My Baby
EXTD=YEAR: 1966
EXTT0=
EXTT1=
EXTT2=
EXTT3=
EXTT4=
EXTT5=
EXTT6=
EXTT7=
EXTT8=
EXTT9=
EXTT10=
EXTT11=
PLAYORDER=
